<svg xmlns="http://www.w3.org/2000/svg" width="485" height="485" viewBox="0 0 484.7 484.7"><path d="M415.1 442v-75.2c0-10-5.9-23.7-13.2-30.6l-145.9-138.2c-7.3-6.9-19.2-7-26.6-0.3l-154.3 138.9c-7.4 6.7-13.5 20.2-13.5 30.2v75.9c35-18.5 94.3-41 176.7-41C319.8 401.8 379.4 423.7 415.1 442zM247.1 274.9h39.7v39.3h-39.7V274.9zM247.1 332.3h39.7v39.3h-39.7V332.3zM229 371.6h-38.9V332.3h38.9V371.6zM229 314.2h-38.9v-39.3h38.9V314.2z"/><path d="M325.5 434.1c-14.5-3.3-30.5-5.9-47.6-7.6 -27.5 22.6-31.5 45.9-31.4 58.2h58.6C305.7 471.7 309.9 453.2 325.5 434.1z"/><path d="M345.3 439.2c-16.9 17.4-21.4 34.4-22.2 45.5h118C441.2 484.6 407.8 457 345.3 439.2z"/><path d="M187.6 427.5c-14.1 1.7-27.3 4.1-39.5 6.9l0.9 1.6c-30.9 18.3-37.4 37.5-38.2 48.7h50.4C161.9 470.2 167.2 448.8 187.6 427.5z"/><path d="M92.7 484.6c0.5-10 3.9-24 16-38.7 -48 17.3-73.1 38.7-73.1 38.7H92.7z"/><path d="M253.3 424.9c-5.3-0.2-10.5-0.5-16-0.5 -6.6 0-13 0.3-19.3 0.5l0.1 0.1c-30.9 21.9-37.7 45.5-38.7 59.6h48.9C228.2 470.7 232.2 447.9 253.3 424.9z"/><path d="M34.9 208.9l35.4 18.4c-12.6 25.3-19.9 53.7-19.9 83.9 0 4.1 0.4 8.1 0.6 12.1 2.7-4 5.7-7.7 9-10.7l154.3-138.9c7.7-6.9 17.7-10.7 28.3-10.7 10.9 0 21.3 4.1 29.1 11.5l145.9 138.2c3 2.9 5.8 6.3 8.3 10.1 0.2-3.9 0.6-7.7 0.6-11.6 0-28.9-6.7-56.1-18.3-80.6l41.7-21.6c8.9-4.6 12.4-15.6 7.7-24.4 -4.6-8.9-15.6-12.4-24.4-7.7l-43.7 22.7c-9.2-12.5-19.8-23.9-31.8-33.7l48.1-81.8c5.1-8.6 2.2-19.7-6.4-24.8 -8.6-5.1-19.8-2.2-24.8 6.4l-47 79.9c-21.5-11.6-45.4-19-70.9-21.5V18.1C256.5 8.1 248.4 0 238.4 0c-10 0-18.1 8.1-18.1 18.1v105.9c-23.1 2.2-44.9 8.7-64.8 18.5l-45.3-77c-5.1-8.6-16.2-11.5-24.8-6.4 -8.6 5.1-11.5 16.2-6.4 24.8l45.7 77.7c-13.2 10-25 21.7-35.1 34.8l-38.1-19.8c-8.9-4.6-19.8-1.1-24.4 7.7C22.5 193.3 26 204.3 34.9 208.9z"/></svg>