<svg xmlns="http://www.w3.org/2000/svg" width="32" height="32" viewBox="0 0 31.8 31.8"><path d="M31.8 20.3c0-0.5-0.3-0.9-0.7-1.1V11.9c0.1 0 0.1-0.1 0.1-0.2 0-0.1-0.1-0.2-0.1-0.2L15.9 6.1c-0.2-0.1-0.4-0.1-0.6 0L0.2 11.5c-0.1 0-0.1 0.1-0.1 0.2s0.1 0.2 0.1 0.2l15.1 5.9c0.2 0.1 0.4 0.1 0.7 0l14.1-5.5v6.9c-0.4 0.2-0.7 0.6-0.7 1.1 0 0.5 0.3 0.9 0.7 1.1 -0.4 0.8-0.7 2.6-0.7 3.1 0 0.7 0.5 1.2 1.2 1.2 0.7 0 1.2-0.5 1.2-1.2 0-0.5-0.3-2.2-0.7-3.1C31.5 21.2 31.8 20.8 31.8 20.3z"/><path d="M4.9 14.9c0 1.7 0 3.7 0 4 0 3.2 4.8 5.7 10.7 5.9 6-0.2 10.7-2.7 10.7-5.9 0-0.3 0-2.3 0-4l-10.4 4.1c-0.2 0.1-0.4 0.1-0.7 0L4.9 14.9z"/></svg>