<svg xmlns="http://www.w3.org/2000/svg" id="Capa_1" width="33" height="33" viewBox="0 0 32.8 32.8"><path d="M29.4 1.3h-1.1c0-0.1 0.1-0.2 0.1-0.3C28.3 0.4 27.9 0 27.3 0s-1 0.4-1 1c0 0.1 0 0.2 0.1 0.3h-3.7c0-0.1 0.1-0.2 0.1-0.3C22.8 0.4 22.4 0 21.9 0 21.3 0 20.9 0.4 20.9 1c0 0.1 0 0.2 0.1 0.3h-3.7c0-0.1 0.1-0.2 0.1-0.3C17.3 0.4 16.9 0 16.4 0c-0.5 0-1 0.4-1 1 0 0.1 0 0.2 0.1 0.3h-3.7c0-0.1 0.1-0.2 0.1-0.3C11.9 0.4 11.4 0 10.9 0c-0.5 0-1 0.4-1 1 0 0.1 0 0.2 0.1 0.3h-3.7c0-0.1 0.1-0.2 0.1-0.3C6.4 0.4 5.9 0 5.4 0 4.9 0 4.4 0.4 4.4 1c0 0.1 0 0.2 0.1 0.3H3.4c-1.5 0-2.7 1.2-2.7 2.8v26c0 1.5 1.2 2.8 2.8 2.8H26.3l5.9-5.9V4C32.1 2.5 30.9 1.3 29.4 1.3zM30.6 26.3l-0.3 0.3h-2.4c-1.1 0-2 0.9-2 2v2.4l-0.3 0.3H3.4c-0.7 0-1.2-0.6-1.2-1.2V5h28.5V26.3z"/><rect x="9.9" y="7.5" width="3.5" height="3.5"/><rect x="14.6" y="7.5" width="3.5" height="3.5"/><rect x="19.3" y="7.5" width="3.5" height="3.5"/><rect x="24" y="7.5" width="3.5" height="3.5"/><rect x="5.2" y="12.3" width="3.5" height="3.5"/><rect x="9.9" y="12.3" width="3.5" height="3.5"/><rect x="14.6" y="12.3" width="3.5" height="3.5"/><rect x="19.3" y="12.3" width="3.5" height="3.5"/><rect x="24" y="12.3" width="3.5" height="3.5"/><rect x="5.2" y="17" width="3.5" height="3.5"/><rect x="9.9" y="17" width="3.5" height="3.5"/><rect x="14.6" y="17" width="3.5" height="3.5"/><rect x="19.3" y="17" width="3.5" height="3.5"/><rect x="24" y="17" width="3.5" height="3.5"/><rect x="5.2" y="21.7" width="3.5" height="3.5"/><rect x="9.9" y="21.7" width="3.5" height="3.5"/><rect x="14.6" y="21.7" width="3.5" height="3.5"/><rect x="19.3" y="21.7" width="3.5" height="3.5"/><rect x="24" y="21.7" width="3.5" height="3.5"/><rect x="5.2" y="27" width="8.3" height="1.8"/></svg>